<svg id="visual" viewBox="0 0 900 600" width="900" height="600" xmlns="http://www.w3.org/2000/svg" xmlns:xlink="http://www.w3.org/1999/xlink" version="1.1"><g stroke-width="1" stroke-linejoin="bevel"><path d="M413 288L504 191L392 196Z" fill="#1f1f1f" stroke="#1f1f1f"></path><path d="M413 288L511 305L504 191Z" fill="#4b4b4b" stroke="#4b4b4b"></path><path d="M504 191L413 137L392 196Z" fill="#282828" stroke="#282828"></path><path d="M504 191L467 108L413 137Z" fill="#393939" stroke="#393939"></path><path d="M511 305L596 181L504 191Z" fill="#393939" stroke="#393939"></path><path d="M504 191L592 102L467 108Z" fill="#0e0e0e" stroke="#0e0e0e"></path><path d="M291 70L289 219L392 196Z" fill="#4b4b4b" stroke="#4b4b4b"></path><path d="M392 196L289 219L413 288Z" fill="#000000" stroke="#000000"></path><path d="M511 305L621 286L596 181Z" fill="#4b4b4b" stroke="#4b4b4b"></path><path d="M311 394L429 412L413 288Z" fill="#0e0e0e" stroke="#0e0e0e"></path><path d="M413 288L429 412L511 305Z" fill="#4b4b4b" stroke="#4b4b4b"></path><path d="M511 305L568 379L621 286Z" fill="#1f1f1f" stroke="#1f1f1f"></path><path d="M512 432L568 379L511 305Z" fill="#393939" stroke="#393939"></path><path d="M723 72L592 102L596 181Z" fill="#424242" stroke="#424242"></path><path d="M596 181L592 102L504 191Z" fill="#303030" stroke="#303030"></path><path d="M289 219L278 333L413 288Z" fill="#171717" stroke="#171717"></path><path d="M429 412L512 432L511 305Z" fill="#1f1f1f" stroke="#1f1f1f"></path><path d="M278 333L311 394L413 288Z" fill="#171717" stroke="#171717"></path><path d="M429 412L465 477L512 432Z" fill="#545454" stroke="#545454"></path><path d="M368 0L291 70L413 137Z" fill="#5e5e5e" stroke="#5e5e5e"></path><path d="M413 137L291 70L392 196Z" fill="#424242" stroke="#424242"></path><path d="M289 219L205 318L278 333Z" fill="#171717" stroke="#171717"></path><path d="M368 0L413 137L467 108Z" fill="#5e5e5e" stroke="#5e5e5e"></path><path d="M592 102L501 0L467 108Z" fill="#393939" stroke="#393939"></path><path d="M501 0L368 0L467 108Z" fill="#545454" stroke="#545454"></path><path d="M389 501L465 477L429 412Z" fill="#545454" stroke="#545454"></path><path d="M733 393L706 338L568 379Z" fill="#545454" stroke="#545454"></path><path d="M189 162L205 318L289 219Z" fill="#0e0e0e" stroke="#0e0e0e"></path><path d="M278 333L225 408L311 394Z" fill="#000000" stroke="#000000"></path><path d="M214 0L220 108L291 70Z" fill="#1f1f1f" stroke="#1f1f1f"></path><path d="M291 70L220 108L289 219Z" fill="#393939" stroke="#393939"></path><path d="M592 102L573 0L501 0Z" fill="#424242" stroke="#424242"></path><path d="M220 108L189 162L289 219Z" fill="#1f1f1f" stroke="#1f1f1f"></path><path d="M288 494L389 501L311 394Z" fill="#000000" stroke="#000000"></path><path d="M311 394L389 501L429 412Z" fill="#171717" stroke="#171717"></path><path d="M568 379L706 338L621 286Z" fill="#5e5e5e" stroke="#5e5e5e"></path><path d="M621 286L736 212L596 181Z" fill="#545454" stroke="#545454"></path><path d="M592 102L665 0L573 0Z" fill="#171717" stroke="#171717"></path><path d="M733 393L568 379L678 513Z" fill="#171717" stroke="#171717"></path><path d="M205 318L225 408L278 333Z" fill="#393939" stroke="#393939"></path><path d="M706 338L736 212L621 286Z" fill="#303030" stroke="#303030"></path><path d="M368 0L269 0L291 70Z" fill="#303030" stroke="#303030"></path><path d="M97 73L108 189L189 162Z" fill="#1f1f1f" stroke="#1f1f1f"></path><path d="M225 408L288 494L311 394Z" fill="#171717" stroke="#171717"></path><path d="M723 72L665 0L592 102Z" fill="#545454" stroke="#545454"></path><path d="M761 132L723 72L596 181Z" fill="#000000" stroke="#000000"></path><path d="M610 524L568 379L512 432Z" fill="#0e0e0e" stroke="#0e0e0e"></path><path d="M706 338L816 286L736 212Z" fill="#4b4b4b" stroke="#4b4b4b"></path><path d="M610 524L512 432L465 477Z" fill="#000000" stroke="#000000"></path><path d="M736 212L761 132L596 181Z" fill="#0e0e0e" stroke="#0e0e0e"></path><path d="M817 209L761 132L736 212Z" fill="#1f1f1f" stroke="#1f1f1f"></path><path d="M269 0L214 0L291 70Z" fill="#393939" stroke="#393939"></path><path d="M513 600L610 524L465 477Z" fill="#545454" stroke="#545454"></path><path d="M391 600L465 477L389 501Z" fill="#303030" stroke="#303030"></path><path d="M97 73L189 162L220 108Z" fill="#424242" stroke="#424242"></path><path d="M189 162L108 189L205 318Z" fill="#393939" stroke="#393939"></path><path d="M205 318L67 427L225 408Z" fill="#1f1f1f" stroke="#1f1f1f"></path><path d="M834 463L770 369L733 393Z" fill="#1f1f1f" stroke="#1f1f1f"></path><path d="M733 393L770 369L706 338Z" fill="#5e5e5e" stroke="#5e5e5e"></path><path d="M225 408L233 515L288 494Z" fill="#393939" stroke="#393939"></path><path d="M320 600L391 600L389 501Z" fill="#282828" stroke="#282828"></path><path d="M124 522L233 515L225 408Z" fill="#0e0e0e" stroke="#0e0e0e"></path><path d="M610 524L678 513L568 379Z" fill="#5e5e5e" stroke="#5e5e5e"></path><path d="M816 286L817 209L736 212Z" fill="#4b4b4b" stroke="#4b4b4b"></path><path d="M761 132L824 0L723 72Z" fill="#424242" stroke="#424242"></path><path d="M770 369L816 286L706 338Z" fill="#393939" stroke="#393939"></path><path d="M320 600L389 501L288 494Z" fill="#393939" stroke="#393939"></path><path d="M610 524L690 600L678 513Z" fill="#000000" stroke="#000000"></path><path d="M108 189L77 262L205 318Z" fill="#303030" stroke="#303030"></path><path d="M391 600L513 600L465 477Z" fill="#171717" stroke="#171717"></path><path d="M214 0L97 73L220 108Z" fill="#424242" stroke="#424242"></path><path d="M108 189L0 214L77 262Z" fill="#4b4b4b" stroke="#4b4b4b"></path><path d="M233 515L320 600L288 494Z" fill="#4b4b4b" stroke="#4b4b4b"></path><path d="M513 600L602 600L610 524Z" fill="#000000" stroke="#000000"></path><path d="M214 0L93 0L97 73Z" fill="#282828" stroke="#282828"></path><path d="M0 72L0 214L108 189Z" fill="#545454" stroke="#545454"></path><path d="M77 262L67 427L205 318Z" fill="#4b4b4b" stroke="#4b4b4b"></path><path d="M233 515L189 600L320 600Z" fill="#171717" stroke="#171717"></path><path d="M67 427L124 522L225 408Z" fill="#000000" stroke="#000000"></path><path d="M900 194L761 132L817 209Z" fill="#1f1f1f" stroke="#1f1f1f"></path><path d="M900 61L824 0L761 132Z" fill="#303030" stroke="#303030"></path><path d="M723 72L824 0L665 0Z" fill="#393939" stroke="#393939"></path><path d="M678 513L834 463L733 393Z" fill="#171717" stroke="#171717"></path><path d="M900 369L900 279L816 286Z" fill="#545454" stroke="#545454"></path><path d="M602 600L690 600L610 524Z" fill="#545454" stroke="#545454"></path><path d="M782 600L834 463L678 513Z" fill="#171717" stroke="#171717"></path><path d="M900 279L900 194L817 209Z" fill="#0e0e0e" stroke="#0e0e0e"></path><path d="M0 72L108 189L97 73Z" fill="#5e5e5e" stroke="#5e5e5e"></path><path d="M77 262L0 363L67 427Z" fill="#5e5e5e" stroke="#5e5e5e"></path><path d="M0 214L0 272L77 262Z" fill="#4b4b4b" stroke="#4b4b4b"></path><path d="M124 522L189 600L233 515Z" fill="#000000" stroke="#000000"></path><path d="M900 279L817 209L816 286Z" fill="#000000" stroke="#000000"></path><path d="M900 369L816 286L770 369Z" fill="#4b4b4b" stroke="#4b4b4b"></path><path d="M0 272L0 363L77 262Z" fill="#171717" stroke="#171717"></path><path d="M0 600L125 600L124 522Z" fill="#303030" stroke="#303030"></path><path d="M834 463L900 369L770 369Z" fill="#1f1f1f" stroke="#1f1f1f"></path><path d="M93 0L0 72L97 73Z" fill="#171717" stroke="#171717"></path><path d="M900 194L900 61L761 132Z" fill="#1f1f1f" stroke="#1f1f1f"></path><path d="M0 479L124 522L67 427Z" fill="#0e0e0e" stroke="#0e0e0e"></path><path d="M124 522L125 600L189 600Z" fill="#171717" stroke="#171717"></path><path d="M690 600L782 600L678 513Z" fill="#000000" stroke="#000000"></path><path d="M834 463L900 472L900 369Z" fill="#4b4b4b" stroke="#4b4b4b"></path><path d="M93 0L0 0L0 72Z" fill="#424242" stroke="#424242"></path><path d="M900 61L900 0L824 0Z" fill="#545454" stroke="#545454"></path><path d="M900 600L900 472L834 463Z" fill="#303030" stroke="#303030"></path><path d="M0 363L0 479L67 427Z" fill="#1f1f1f" stroke="#1f1f1f"></path><path d="M0 479L0 600L124 522Z" fill="#171717" stroke="#171717"></path><path d="M782 600L900 600L834 463Z" fill="#282828" stroke="#282828"></path></g></svg>